<svg xmlns="http://www.w3.org/2000/svg" viewBox="0 0 440 650" fill="none">
<defs>
  <linearGradient id="wash" x1="0" y1="0" x2="1" y2="1"><stop stop-color="#d5ddc7" stop-opacity=".3"/><stop offset="1" stop-color="#eae4d4" stop-opacity="0"/></linearGradient>
</defs>
<title>La vida que no se ve</title><desc>Un corte de suelo con raíces, hongos y una red de micelio. Sus ramificaciones evocan los vínculos, el tiempo y el conocimiento que se construye al observar y compartir.</desc>
<path d="M66 238C43 137 164 110 264 148C386 164 417 269 381 404C355 531 285 585 175 565C73 548 30 378 66 238Z" fill="url(#wash)"/>
<!-- The soil horizon is a permeable edge, not a divider. -->
<path d="M25 221C87 208 103 227 161 216C224 208 273 225 326 215C361 209 391 213 416 215" stroke="#52604a" stroke-width="1.25"/>
<path d="M43 233C84 229 109 239 142 230M264 233C305 230 357 225 395 229" stroke="#52604a" stroke-width=".65" opacity=".3"/>
<path d="M40 238C114 220 152 243 217 233C302 232 336 232 395 230L372 448C333 540 266 580 178 554C97 534 55 422 40 238Z" fill="#b8873f" fill-opacity=".035"/>
<g stroke="#52604a" stroke-linecap="round" stroke-linejoin="round" fill="none">
<!-- Above ground: a modest sprout; below ground: its expansive story. -->
<path d="M170 217C167 173 177 140 194 103M177 162C148 155 132 134 132 114C159 121 175 139 177 162ZM185 128C188 98 208 79 237 74C232 105 212 124 185 128Z" fill="#82916f" fill-opacity=".16" stroke-width="1.4"/>
<path d="M137 121L177 162M191 122L230 81M205 108L204 96" stroke-width=".7"/>
<!-- A root collar, then roots that grow thinner as they branch. -->
<path d="M166 218C161 254 175 277 166 312C157 352 174 374 160 410C148 444 156 471 138 505M176 218C186 257 179 291 199 323C221 359 204 392 221 427C241 464 235 491 258 523" stroke-width="2.2"/>
<path d="M172 231C145 252 120 262 101 297C84 327 81 357 52 379M173 266C209 266 235 276 260 305C284 331 311 333 335 368M165 306C132 325 121 350 119 381C118 414 96 440 91 470M199 326C181 358 186 389 181 415C176 445 184 477 173 521" stroke-width="1.45"/>
<path d="M116 275L86 280L66 301M97 306L112 332L103 355M80 344L56 348L36 366M235 281L261 273L291 284M272 317L273 346L286 367M311 342L339 334L366 348M124 349L101 352L83 367M119 394L138 416L132 437M212 383L237 394L249 420M157 425L134 447L120 481M179 453L200 479L194 506M232 454L213 477L220 510M242 497L271 512L282 537M147 476L155 508L144 534" stroke-width=".9"/>
<g opacity=".55" stroke-width=".6">
<path d="M87 280L76 269M91 283L88 265M103 321L94 328M110 334L123 340M56 348L50 336M261 273L262 261M277 280L290 270M273 341L258 351M335 337L341 324M120 409L107 411M133 423L147 428M152 441L160 452M181 476L170 486M219 484L203 496M256 513L251 529M139 498L126 508"/>
</g>
<!-- Two different fruiting bodies stand over the fine fungal network. -->
<path d="M280 214C286 194 290 177 287 159L300 160C296 183 300 199 306 215" fill="#eae4d4" stroke-width="1.15"/>
<path d="M254 159C260 127 277 115 292 118C315 121 327 141 335 163C306 170 278 168 254 159Z" fill="#b8873f" fill-opacity=".14" stroke-width="1.3"/>
<path d="M256 160C278 149 311 151 334 163M263 158L289 164M273 155L291 163M307 155L298 164M322 159L302 165M277 128C266 136 263 144 262 150" stroke-width=".6"/>
<path d="M357 213L353 184M365 214L364 184M335 182C344 161 365 157 382 181C367 187 350 187 335 182Z" fill="#eae4d4" stroke-width="1.1"/>
<path d="M341 182L354 184M376 181L366 184" stroke-width=".65"/>
</g>
<g stroke="#8b7755" fill="none" stroke-linecap="round" stroke-linejoin="round"><path d="M294 215C281 249 305 269 286 293C268 316 296 342 276 372C252 399 265 431 244 455" stroke-width="0.8" opacity="0.65"/><path d="M301 217C319 243 323 260 347 279C368 296 352 323 377 344" stroke-width="0.8" opacity="0.65"/><path d="M359 216C354 244 333 251 330 279C325 308 307 316 313 346C320 377 299 399 306 429" stroke-width="0.8" opacity="0.65"/><path d="M70 395C103 384 145 401 164 376C189 349 225 369 249 349C275 327 307 346 330 326" stroke-width="0.55" opacity="0.48"/><path d="M61 437C84 419 117 439 144 420C170 400 197 427 223 407C248 385 280 412 300 387C321 365 346 385 374 371" stroke-width="0.55" opacity="0.48"/><path d="M87 487C114 465 154 491 178 468C205 443 236 466 259 448C285 427 319 444 345 420" stroke-width="0.55" opacity="0.48"/><path d="M131 533C153 514 178 535 202 517C227 500 247 521 273 497C295 477 325 493 350 466" stroke-width="0.55" opacity="0.48"/><path d="M104 396C97 420 116 441 102 469M143 422C153 443 136 465 151 485M188 415C208 432 191 455 210 470M247 401C238 425 256 439 247 461M308 390C298 412 317 435 301 455M162 488C155 507 173 520 167 539M212 473C227 485 213 505 225 529M278 445C268 469 284 485 273 507" stroke-width="0.55" opacity="0.48"/><path d="M68 438L52 421L38 422M101 468L78 463L65 476M144 420L127 405L135 390M204 518L192 539L201 553M300 454L323 455L335 473M350 466L369 453L386 457M348 277L370 270L388 283" stroke-width="0.55" opacity="0.48"/><path d="M286 293L307 288L330 279M313 346L337 352L354 340M249 349L235 328L248 312M244 455L229 478L235 500" stroke-width="0.55" opacity="0.48"/><path d="M68 438Q64.1 437.0 54.1 440.0" stroke-width=".45" opacity=".5"/><path d="M68 438Q64.7 432.9 55.4 431.8" stroke-width=".45" opacity=".5"/><path d="M68 438Q67.6 429.9 61.1 425.8" stroke-width=".45" opacity=".5"/><circle cx="68" cy="438" r="2.3" fill="#b8873f" fill-opacity=".38" stroke="none"/><path d="M104 396Q102.4 388.7 94.8 385.4" stroke-width=".45" opacity=".5"/><path d="M104 396Q106.2 387.0 102.4 382.1" stroke-width=".45" opacity=".5"/><path d="M104 396Q110.3 387.8 110.6 383.6" stroke-width=".45" opacity=".5"/><circle cx="104" cy="396" r="2.3" fill="#b8873f" fill-opacity=".38" stroke="none"/><path d="M144 420Q144.1 424.4 138.2 432.7" stroke-width=".45" opacity=".5"/><path d="M144 420Q141.0 421.6 132.0 427.2" stroke-width=".45" opacity=".5"/><path d="M144 420Q140.0 417.6 130.0 419.2" stroke-width=".45" opacity=".5"/><circle cx="144" cy="420" r="2.3" fill="#b8873f" fill-opacity=".38" stroke="none"/><path d="M188 415Q193.0 406.3 192.0 401.6" stroke-width=".45" opacity=".5"/><path d="M188 415Q196.4 408.6 198.9 406.2" stroke-width=".45" opacity=".5"/><path d="M188 415Q198.0 412.4 202.0 413.8" stroke-width=".45" opacity=".5"/><circle cx="188" cy="415" r="2.3" fill="#b8873f" fill-opacity=".38" stroke="none"/><path d="M247 401Q257.0 399.0 261.0 401.0" stroke-width=".45" opacity=".5"/><path d="M247 401Q255.8 403.0 258.6 408.9" stroke-width=".45" opacity=".5"/><path d="M247 401Q252.5 405.5 252.1 414.0" stroke-width=".45" opacity=".5"/><circle cx="247" cy="401" r="2.3" fill="#b8873f" fill-opacity=".38" stroke="none"/><path d="M308 390Q314.8 393.9 315.6 401.8" stroke-width=".45" opacity=".5"/><path d="M308 390Q310.8 395.0 307.6 404.0" stroke-width=".45" opacity=".5"/><path d="M308 390Q306.9 393.7 299.8 401.3" stroke-width=".45" opacity=".5"/><circle cx="308" cy="390" r="2.3" fill="#b8873f" fill-opacity=".38" stroke="none"/><path d="M87 487Q83.1 486.0 73.1 489.0" stroke-width=".45" opacity=".5"/><path d="M87 487Q83.7 481.9 74.4 480.8" stroke-width=".45" opacity=".5"/><path d="M87 487Q86.6 478.9 80.1 474.8" stroke-width=".45" opacity=".5"/><circle cx="87" cy="487" r="2.3" fill="#b8873f" fill-opacity=".38" stroke="none"/><path d="M131 533Q131.1 537.4 125.2 545.7" stroke-width=".45" opacity=".5"/><path d="M131 533Q128.0 534.6 119.0 540.2" stroke-width=".45" opacity=".5"/><path d="M131 533Q127.0 530.6 117.0 532.2" stroke-width=".45" opacity=".5"/><circle cx="131" cy="533" r="2.3" fill="#b8873f" fill-opacity=".38" stroke="none"/><path d="M202 517Q208.8 520.9 209.6 528.8" stroke-width=".45" opacity=".5"/><path d="M202 517Q204.8 522.0 201.6 531.0" stroke-width=".45" opacity=".5"/><path d="M202 517Q200.9 520.7 193.8 528.3" stroke-width=".45" opacity=".5"/><circle cx="202" cy="517" r="2.3" fill="#b8873f" fill-opacity=".38" stroke="none"/><path d="M273 497Q283.0 495.0 287.0 497.0" stroke-width=".45" opacity=".5"/><path d="M273 497Q281.8 499.0 284.6 504.9" stroke-width=".45" opacity=".5"/><path d="M273 497Q278.5 501.5 278.1 510.0" stroke-width=".45" opacity=".5"/><circle cx="273" cy="497" r="2.3" fill="#b8873f" fill-opacity=".38" stroke="none"/><path d="M345 420Q350.0 411.3 349.0 406.6" stroke-width=".45" opacity=".5"/><path d="M345 420Q353.4 413.6 355.9 411.2" stroke-width=".45" opacity=".5"/><path d="M345 420Q355.0 417.4 359.0 418.8" stroke-width=".45" opacity=".5"/><circle cx="345" cy="420" r="2.3" fill="#b8873f" fill-opacity=".38" stroke="none"/><path d="M377 344Q387.0 342.0 391.0 344.0" stroke-width=".45" opacity=".5"/><path d="M377 344Q385.8 346.0 388.6 351.9" stroke-width=".45" opacity=".5"/><path d="M377 344Q382.5 348.5 382.1 357.0" stroke-width=".45" opacity=".5"/><circle cx="377" cy="344" r="2.3" fill="#b8873f" fill-opacity=".38" stroke="none"/><path d="M286 293Q286.1 297.4 280.2 305.7" stroke-width=".45" opacity=".5"/><path d="M286 293Q283.0 294.6 274.0 300.2" stroke-width=".45" opacity=".5"/><path d="M286 293Q282.0 290.6 272.0 292.2" stroke-width=".45" opacity=".5"/><circle cx="286" cy="293" r="2.3" fill="#b8873f" fill-opacity=".38" stroke="none"/><path d="M330 279Q328.4 271.7 320.8 268.4" stroke-width=".45" opacity=".5"/><path d="M330 279Q332.2 270.0 328.4 265.1" stroke-width=".45" opacity=".5"/><path d="M330 279Q336.3 270.8 336.6 266.6" stroke-width=".45" opacity=".5"/><circle cx="330" cy="279" r="2.3" fill="#b8873f" fill-opacity=".38" stroke="none"/></g>
<!-- A fallen leaf recalls matter returning to the soil. -->
<g stroke="#8b7755" stroke-linecap="round" stroke-width=".85">
<path d="M51 203C55 185 69 170 91 175C91 196 73 209 51 203Z" fill="#b8873f" fill-opacity=".09"/>
<path d="M47 209L86 180M61 199L61 186M70 190L80 191"/>
</g>
<g stroke="#52604a" stroke-width=".65" opacity=".35" fill="none">
<path d="M20 303H58L98 282M358 423L386 408H427M45 562H91L137 524"/>
<circle cx="98" cy="282" r="2"/><circle cx="358" cy="423" r="2"/><circle cx="137" cy="524" r="2"/>
</g>
<g fill="#8b7755" opacity=".2">
<circle cx="51" cy="251" r="1.1"/><circle cx="72" cy="264" r="1.3"/><circle cx="120" cy="243" r="1"/><circle cx="219" cy="246" r="1.4"/><circle cx="248" cy="260" r="1"/><circle cx="375" cy="243" r="1.2"/><circle cx="52" cy="328" r="1"/><circle cx="392" cy="361" r="1.4"/><circle cx="64" cy="407" r="1"/><circle cx="367" cy="480" r="1.2"/><circle cx="115" cy="509" r="1.1"/>
</g>
</svg>